<svg width="22" height="22" viewBox="0 0 22 22" fill="none" xmlns="http://www.w3.org/2000/svg">
<path d="M13.7243 18.1676C12.8486 18.3946 11.9405 18.5027 11 18.5027C7.46486 18.5027 4.2973 16.8486 2.13514 14.2324C0.621622 12.4054 0.621622 9.58379 2.13514 7.76757C2.30811 7.55135 2.5027 7.34595 2.6973 7.14054M16.8378 16.8487C17.9729 16.1568 19 15.2703 19.8648 14.2324C21.3783 12.4162 21.3783 9.58379 19.8648 7.76757C17.7027 5.15135 14.5351 3.49729 11 3.49729C8.85942 3.49729 6.87023 4.09189 5.15131 5.15135M16.8378 16.8487L13.3568 13.3568M16.8378 16.8487L21 21M5.15131 5.15135L1 1M5.15131 5.15135L8.64332 8.64324M13.3568 13.3568C13.9514 12.7514 14.3298 11.9189 14.3298 11C14.3298 9.15135 12.8487 7.67027 11.0001 7.67027C10.0812 7.67027 9.23791 8.03784 8.64332 8.64324M13.3568 13.3568L8.64332 8.64324" stroke="#737373" stroke-width="1.5" stroke-linecap="round" stroke-linejoin="round"/>
</svg>
