<svg width="22" height="20" viewBox="0 0 22 20" fill="none" xmlns="http://www.w3.org/2000/svg">
  <path
    d="M19.8648 13.2324C18.7944 14.5548 17.4442 15.6236 15.9114 16.3619C14.3786 17.1003 12.7013 17.4898 11 17.5026C9.29849 17.491 7.62075 17.102 6.08779 16.3636C4.55482 15.6251 3.20484 14.5557 2.13519 13.2324C1.40039 12.3153 1 11.1752 1 9.99997C1 8.8248 1.40039 7.68469 2.13519 6.76756C3.20565 5.44518 4.5558 4.37639 6.08858 3.63804C7.62137 2.89969 9.2987 2.51011 11 2.49731C12.7015 2.5089 14.3792 2.89794 15.9122 3.63638C17.4452 4.37482 18.7952 5.44426 19.8648 6.76756C20.5996 7.68469 21 8.8248 21 9.99997C21 11.1752 20.5996 12.3153 19.8648 13.2324Z"
    stroke="currentColor" stroke-linecap="round" stroke-linejoin="round" />
  <path
    d="M10.9999 13.3295C10.3413 13.3295 9.69754 13.1343 9.14997 12.7684C8.6024 12.4025 8.17563 11.8825 7.92361 11.2741C7.67159 10.6656 7.60565 9.99613 7.73413 9.35023C7.86261 8.70433 8.17973 8.11104 8.6454 7.64537C9.11107 7.1797 9.70436 6.86257 10.3503 6.7341C10.9962 6.60562 11.6657 6.67156 12.2741 6.92358C12.8825 7.17559 13.4025 7.60237 13.7684 8.14994C14.1343 8.69751 14.3296 9.34127 14.3296 9.99983C14.3296 10.8829 13.9788 11.7298 13.3543 12.3543C12.7299 12.9787 11.883 13.3295 10.9999 13.3295Z"
    stroke="currentColor" stroke-linecap="round" stroke-linejoin="round" />
</svg>