<svg width="19" height="22" viewBox="0 0 19 22" fill="none" xmlns="http://www.w3.org/2000/svg">
  <path
    d="M14.9529 8.97656V6.97656C14.9529 5.65048 14.4263 4.3786 13.4886 3.44092C12.5509 2.50324 11.279 1.97656 9.95295 1.97656C8.62687 1.97656 7.35499 2.50324 6.4173 3.44092C5.47962 4.3786 4.95295 5.65048 4.95295 6.97656V8.97656M9.95295 13.4766V15.4766M6.753 19.9766H13.1529C14.2177 20.0975 15.2962 19.9848 16.3131 19.6465C16.8826 19.3668 17.3431 18.9062 17.6229 18.3367C17.9612 17.3198 18.0738 16.2413 17.9529 15.1765V13.7766C18.0738 12.7118 17.9612 11.6333 17.6229 10.6165C17.3431 10.0469 16.8826 9.58637 16.3131 9.30664C15.2962 8.96836 14.2177 8.85567 13.1529 8.97656H6.753C5.6882 8.85567 4.60969 8.96836 3.59284 9.30664C3.02328 9.58637 2.56275 10.0469 2.28303 10.6165C1.94475 11.6333 1.83206 12.7118 1.95295 13.7766V15.1765C1.83206 16.2413 1.94475 17.3198 2.28303 18.3367C2.56275 18.9062 3.02328 19.3668 3.59284 19.6465C4.60969 19.9848 5.6882 20.0975 6.753 19.9766Z"
    stroke="currentColor" stroke-linecap="round" stroke-linejoin="round" />
</svg>